<mxfile host="app.diagrams.net" modified="2021-11-09T13:58:29.986Z" agent="5.0 (Windows NT 10.0; Win64; x64) AppleWebKit/537.36 (KHTML, like Gecko) Chrome/95.0.4638.69 Safari/537.36" etag="MI4WuP4s-JY2542TkBni" version="15.6.6" type="github">
  <diagram id="gHjDEHr2dvzidj4Ks3dE" name="Page-1">
    <mxGraphModel dx="1221" dy="644" grid="1" gridSize="10" guides="1" tooltips="1" connect="1" arrows="1" fold="1" page="0" pageScale="1" pageWidth="850" pageHeight="1100" math="0" shadow="0">
      <root>
        <mxCell id="0" />
        <mxCell id="1" parent="0" />
        <mxCell id="v84Jlu1TSVa9DagHfN7Z-19" value="AWS Cloud" style="points=[[0,0],[0.25,0],[0.5,0],[0.75,0],[1,0],[1,0.25],[1,0.5],[1,0.75],[1,1],[0.75,1],[0.5,1],[0.25,1],[0,1],[0,0.75],[0,0.5],[0,0.25]];outlineConnect=0;gradientColor=none;html=1;whiteSpace=wrap;fontSize=12;fontStyle=0;shape=mxgraph.aws4.group;grIcon=mxgraph.aws4.group_aws_cloud_alt;strokeColor=#232F3E;fillColor=none;verticalAlign=top;align=left;spacingLeft=30;fontColor=#232F3E;dashed=0;" vertex="1" parent="1">
          <mxGeometry x="440" y="40" width="260" height="330" as="geometry" />
        </mxCell>
        <mxCell id="v84Jlu1TSVa9DagHfN7Z-20" value="Region" style="points=[[0,0],[0.25,0],[0.5,0],[0.75,0],[1,0],[1,0.25],[1,0.5],[1,0.75],[1,1],[0.75,1],[0.5,1],[0.25,1],[0,1],[0,0.75],[0,0.5],[0,0.25]];outlineConnect=0;gradientColor=none;html=1;whiteSpace=wrap;fontSize=12;fontStyle=0;shape=mxgraph.aws4.group;grIcon=mxgraph.aws4.group_region;strokeColor=#147EBA;fillColor=none;verticalAlign=top;align=left;spacingLeft=30;fontColor=#147EBA;dashed=1;" vertex="1" parent="1">
          <mxGeometry x="522.5" y="82.05" width="137.5" height="257.95" as="geometry" />
        </mxCell>
        <mxCell id="v84Jlu1TSVa9DagHfN7Z-4" style="edgeStyle=orthogonalEdgeStyle;rounded=0;orthogonalLoop=1;jettySize=auto;html=1;fontColor=default;strokeColor=default;labelBackgroundColor=default;startArrow=classic;startFill=1;" edge="1" parent="1" source="v84Jlu1TSVa9DagHfN7Z-1" target="v84Jlu1TSVa9DagHfN7Z-5">
          <mxGeometry relative="1" as="geometry">
            <mxPoint x="230" y="240" as="targetPoint" />
            <Array as="points">
              <mxPoint x="160" y="170" />
              <mxPoint x="160" y="230" />
            </Array>
          </mxGeometry>
        </mxCell>
        <mxCell id="v84Jlu1TSVa9DagHfN7Z-1" value="users" style="sketch=0;outlineConnect=0;gradientColor=none;fontColor=#545B64;strokeColor=none;fillColor=#879196;dashed=0;verticalLabelPosition=bottom;verticalAlign=top;align=center;html=1;fontSize=12;fontStyle=0;aspect=fixed;shape=mxgraph.aws4.illustration_users;pointerEvents=1" vertex="1" parent="1">
          <mxGeometry x="60" y="150" width="40" height="40" as="geometry" />
        </mxCell>
        <mxCell id="v84Jlu1TSVa9DagHfN7Z-3" value="mobile_app" style="text;html=1;strokeColor=none;fillColor=none;align=center;verticalAlign=middle;whiteSpace=wrap;rounded=0;fontColor=default;" vertex="1" parent="1">
          <mxGeometry x="220" y="280" width="60" height="30" as="geometry" />
        </mxCell>
        <mxCell id="v84Jlu1TSVa9DagHfN7Z-7" style="edgeStyle=orthogonalEdgeStyle;rounded=0;orthogonalLoop=1;jettySize=auto;html=1;labelBackgroundColor=default;fontSize=14;fontColor=default;strokeColor=default;startArrow=classic;startFill=1;" edge="1" parent="1" source="v84Jlu1TSVa9DagHfN7Z-5" target="v84Jlu1TSVa9DagHfN7Z-6">
          <mxGeometry relative="1" as="geometry">
            <Array as="points">
              <mxPoint x="70" y="260" />
            </Array>
          </mxGeometry>
        </mxCell>
        <mxCell id="v84Jlu1TSVa9DagHfN7Z-14" style="edgeStyle=orthogonalEdgeStyle;rounded=0;orthogonalLoop=1;jettySize=auto;html=1;entryX=0;entryY=0.5;entryDx=0;entryDy=0;entryPerimeter=0;labelBackgroundColor=default;fontSize=14;fontColor=default;strokeColor=default;startArrow=classic;startFill=1;" edge="1" parent="1" source="v84Jlu1TSVa9DagHfN7Z-5" target="v84Jlu1TSVa9DagHfN7Z-12">
          <mxGeometry relative="1" as="geometry">
            <Array as="points">
              <mxPoint x="310" y="260" />
              <mxPoint x="310" y="282" />
            </Array>
          </mxGeometry>
        </mxCell>
        <mxCell id="v84Jlu1TSVa9DagHfN7Z-15" style="edgeStyle=orthogonalEdgeStyle;rounded=0;orthogonalLoop=1;jettySize=auto;html=1;entryX=0.5;entryY=0;entryDx=0;entryDy=0;entryPerimeter=0;labelBackgroundColor=default;fontSize=14;fontColor=default;strokeColor=default;startArrow=classic;startFill=1;" edge="1" parent="1" source="v84Jlu1TSVa9DagHfN7Z-5" target="v84Jlu1TSVa9DagHfN7Z-8">
          <mxGeometry relative="1" as="geometry">
            <Array as="points">
              <mxPoint x="250" y="120" />
              <mxPoint x="613" y="120" />
            </Array>
          </mxGeometry>
        </mxCell>
        <mxCell id="v84Jlu1TSVa9DagHfN7Z-18" style="edgeStyle=orthogonalEdgeStyle;rounded=0;orthogonalLoop=1;jettySize=auto;html=1;labelBackgroundColor=default;fontSize=14;fontColor=default;strokeColor=default;startArrow=classic;startFill=1;" edge="1" parent="1" source="v84Jlu1TSVa9DagHfN7Z-5" target="v84Jlu1TSVa9DagHfN7Z-16">
          <mxGeometry relative="1" as="geometry">
            <Array as="points">
              <mxPoint x="313" y="230" />
              <mxPoint x="313" y="153" />
            </Array>
          </mxGeometry>
        </mxCell>
        <mxCell id="v84Jlu1TSVa9DagHfN7Z-5" value="" style="sketch=0;outlineConnect=0;fontColor=#232F3E;gradientColor=none;fillColor=#232F3E;strokeColor=none;dashed=0;verticalLabelPosition=bottom;verticalAlign=top;align=center;html=1;fontSize=12;fontStyle=0;aspect=fixed;pointerEvents=1;shape=mxgraph.aws4.mobile_client;" vertex="1" parent="1">
          <mxGeometry x="229.5" y="202" width="41" height="78" as="geometry" />
        </mxCell>
        <mxCell id="v84Jlu1TSVa9DagHfN7Z-6" value="IdP&lt;br style=&quot;font-size: 14px;&quot;&gt;identity provider" style="text;html=1;strokeColor=none;fillColor=none;align=center;verticalAlign=middle;whiteSpace=wrap;rounded=0;fontColor=default;fontSize=14;fontStyle=1" vertex="1" parent="1">
          <mxGeometry x="10" y="350" width="120" height="30" as="geometry" />
        </mxCell>
        <mxCell id="v84Jlu1TSVa9DagHfN7Z-8" value="" style="sketch=0;points=[[0,0,0],[0.25,0,0],[0.5,0,0],[0.75,0,0],[1,0,0],[0,1,0],[0.25,1,0],[0.5,1,0],[0.75,1,0],[1,1,0],[0,0.25,0],[0,0.5,0],[0,0.75,0],[1,0.25,0],[1,0.5,0],[1,0.75,0]];outlineConnect=0;fontColor=#232F3E;gradientColor=#F54749;gradientDirection=north;fillColor=#C7131F;strokeColor=#ffffff;dashed=0;verticalLabelPosition=bottom;verticalAlign=top;align=center;html=1;fontSize=12;fontStyle=0;aspect=fixed;shape=mxgraph.aws4.resourceIcon;resIcon=mxgraph.aws4.cognito;" vertex="1" parent="1">
          <mxGeometry x="575" y="150" width="40" height="40" as="geometry" />
        </mxCell>
        <mxCell id="v84Jlu1TSVa9DagHfN7Z-9" value="Cognito" style="text;html=1;strokeColor=none;fillColor=none;align=center;verticalAlign=middle;whiteSpace=wrap;rounded=0;fontColor=default;" vertex="1" parent="1">
          <mxGeometry x="565" y="190" width="60" height="20" as="geometry" />
        </mxCell>
        <mxCell id="v84Jlu1TSVa9DagHfN7Z-12" value="" style="sketch=0;points=[[0,0,0],[0.25,0,0],[0.5,0,0],[0.75,0,0],[1,0,0],[0,1,0],[0.25,1,0],[0.5,1,0],[0.75,1,0],[1,1,0],[0,0.25,0],[0,0.5,0],[0,0.75,0],[1,0.25,0],[1,0.5,0],[1,0.75,0]];outlineConnect=0;fontColor=#232F3E;gradientColor=#4D72F3;gradientDirection=north;fillColor=#3334B9;strokeColor=#ffffff;dashed=0;verticalLabelPosition=bottom;verticalAlign=top;align=center;html=1;fontSize=12;fontStyle=0;aspect=fixed;shape=mxgraph.aws4.resourceIcon;resIcon=mxgraph.aws4.dynamodb;" vertex="1" parent="1">
          <mxGeometry x="575" y="262.05" width="40" height="40" as="geometry" />
        </mxCell>
        <mxCell id="v84Jlu1TSVa9DagHfN7Z-13" value="DynamoDB" style="text;html=1;strokeColor=none;fillColor=none;align=center;verticalAlign=middle;whiteSpace=wrap;rounded=0;fontColor=default;" vertex="1" parent="1">
          <mxGeometry x="565" y="302.05" width="60" height="20" as="geometry" />
        </mxCell>
        <mxCell id="v84Jlu1TSVa9DagHfN7Z-16" value="" style="sketch=0;outlineConnect=0;fontColor=#232F3E;gradientColor=none;fillColor=#FF5252;strokeColor=none;dashed=0;verticalLabelPosition=bottom;verticalAlign=top;align=center;html=1;fontSize=12;fontStyle=0;aspect=fixed;pointerEvents=1;shape=mxgraph.aws4.sts;" vertex="1" parent="1">
          <mxGeometry x="460" y="140" width="40" height="25.64" as="geometry" />
        </mxCell>
        <mxCell id="v84Jlu1TSVa9DagHfN7Z-17" value="Security Token Service" style="text;html=1;strokeColor=none;fillColor=none;align=center;verticalAlign=middle;whiteSpace=wrap;rounded=0;fontColor=default;" vertex="1" parent="1">
          <mxGeometry x="450" y="170" width="60" height="47.69" as="geometry" />
        </mxCell>
        <mxCell id="v84Jlu1TSVa9DagHfN7Z-21" value="1.&lt;br&gt;Start using the app" style="text;html=1;strokeColor=none;fillColor=none;align=left;verticalAlign=middle;whiteSpace=wrap;rounded=0;fontColor=default;" vertex="1" parent="1">
          <mxGeometry x="119.5" y="130" width="110" height="30" as="geometry" />
        </mxCell>
        <mxCell id="v84Jlu1TSVa9DagHfN7Z-22" value="2.&lt;br&gt;Redirect for authentication and receive an ID token&amp;nbsp;" style="text;html=1;strokeColor=none;fillColor=none;align=left;verticalAlign=middle;whiteSpace=wrap;rounded=0;fontColor=default;" vertex="1" parent="1">
          <mxGeometry x="80" y="270" width="110" height="60" as="geometry" />
        </mxCell>
        <mxCell id="v84Jlu1TSVa9DagHfN7Z-23" value="3.&lt;br&gt;Exchange ID token for Cognito Token&amp;nbsp;" style="text;html=1;strokeColor=none;fillColor=none;align=left;verticalAlign=middle;whiteSpace=wrap;rounded=0;fontColor=default;" vertex="1" parent="1">
          <mxGeometry x="250" y="60" width="110" height="60" as="geometry" />
        </mxCell>
        <mxCell id="v84Jlu1TSVa9DagHfN7Z-25" value="4.&lt;br&gt;Exchange Cognito Token for temporary AWS Credentials" style="text;html=1;strokeColor=none;fillColor=none;align=left;verticalAlign=middle;whiteSpace=wrap;rounded=0;fontColor=default;" vertex="1" parent="1">
          <mxGeometry x="320" y="160" width="110" height="60" as="geometry" />
        </mxCell>
        <mxCell id="v84Jlu1TSVa9DagHfN7Z-26" value="5.&lt;br&gt;Uses Temporary AWS Credentials for access to AWS Services" style="text;html=1;strokeColor=none;fillColor=none;align=left;verticalAlign=middle;whiteSpace=wrap;rounded=0;fontColor=default;" vertex="1" parent="1">
          <mxGeometry x="320" y="290" width="110" height="60" as="geometry" />
        </mxCell>
      </root>
    </mxGraphModel>
  </diagram>
</mxfile>
